<svg width="156" height="32" viewBox="0 0 156 32" fill="none" xmlns="http://www.w3.org/2000/svg">
<path d="M84.7744 8.8457C87.1191 8.8457 89.108 9.38195 90.7422 10.4502V10.4521C92.3763 11.5225 93.5537 13.0323 94.2773 14.9844C94.9988 16.9342 95.201 19.1684 94.8838 21.6826H78.5859C78.7097 23.4523 79.1943 24.892 80.0439 25.9971C81.1435 27.428 82.7208 28.1425 84.7744 28.1426C86.2194 28.1426 87.3906 27.8256 88.2881 27.1895C89.1856 26.5555 89.7793 25.8019 90.0684 24.9355H94.6689C94.3496 26.3229 93.7558 27.5519 92.8887 28.6201C92.0197 29.6906 90.8988 30.5206 89.5254 31.1133C88.1521 31.704 86.5671 32.001 84.7744 32.001C82.5753 32.0009 80.6522 31.5236 79.0029 30.5703C77.3534 29.617 76.0882 28.2731 75.2061 26.5381C74.3238 24.8034 73.8829 22.7079 73.8828 20.4238C73.8828 18.1397 74.3238 16.1157 75.2061 14.3525C76.0882 12.5893 77.3473 11.2297 78.9814 10.2764C80.6155 9.32321 82.4297 8.84574 84.7744 8.8457ZM74.4043 31.3477H69.1113L65.9297 23.0225H53.4971L50.2793 31.3477H45.0283L56.9609 0.996094H62.4717L74.4043 31.3477ZM116.843 12.583C117.406 11.5428 118.127 10.7127 119.012 10.1025C120.228 9.26458 121.774 8.84575 123.655 8.8457C125.333 8.8457 126.78 9.1847 127.995 9.86426V9.8623C129.21 10.5418 130.142 11.5252 130.794 12.8105C131.444 14.0959 131.77 15.6487 131.77 17.4707V31.3457H127.126V18.4258C127.126 16.5475 126.75 15.1511 125.998 14.2412C125.246 13.3317 124.118 12.876 122.614 12.876C120.819 12.8761 119.409 13.5212 118.384 14.8066C117.356 16.0943 116.843 18.009 116.843 20.5518V31.3477H112.199V0.996094H116.843V12.583ZM102.283 9.49316H109.53V13.4824H102.283V27.3574H109.53V31.3457H102.501C100.938 31.3457 99.7382 30.9272 98.8994 30.0889C98.0606 29.2508 97.6417 28.0521 97.6416 26.4912V2.73145H102.283V9.49316ZM139.971 31.3447H135.327V9.49219H139.971V31.3447ZM155.639 13.4814H148.392V31.3428H143.748V14.3477C143.748 12.7866 144.167 11.5881 145.006 10.75C145.845 9.91195 147.044 9.49227 148.606 9.49219H155.639V13.4814ZM23.4014 0.989258C24.3409 0.989308 25.1969 1.52507 25.6045 2.36719L38.4834 28.9688C39.0051 30.0461 38.2162 31.2966 37.0137 31.2969H27.7881C26.6466 31.2969 25.537 30.9234 24.6279 30.2354L13.2344 21.6045L9.09766 30.1475C8.75725 30.8495 8.04441 31.2968 7.26172 31.2969H1.63379C0.431159 31.2969 -0.357766 30.0463 0.164062 28.9688L5.25781 18.4385C5.66539 17.5966 6.52134 17.0607 7.46094 17.0605H15.1562C15.6717 17.0606 16.173 17.2234 16.5908 17.5234L27.1025 25.0967L19.3223 9.02539L17.8037 12.1621C17.4636 12.8641 16.7503 13.3104 15.9678 13.3105H10.3389C9.13659 13.3102 8.34835 12.061 8.87012 10.9834L13.04 2.36719C13.4476 1.52503 14.3045 0.989258 15.2441 0.989258H23.4014ZM54.9053 18.8164H64.4824L59.7822 6.63281H59.6055L54.9053 18.8164ZM84.6006 12.5762C83.3859 12.5762 82.3207 12.871 81.4102 13.4639C80.4998 14.0565 79.7978 14.917 79.3066 16.0439C79.009 16.7258 78.8077 17.4771 78.7012 18.2979H90.3154C90.3264 17.5313 90.2246 16.8168 90.0029 16.1523C89.64 15.0688 88.997 14.2022 88.0713 13.5508C87.1456 12.9015 85.9892 12.5762 84.6006 12.5762ZM137.629 0C139.235 0.000191866 140.536 1.30084 140.536 2.90527C140.536 4.50971 139.235 5.81036 137.629 5.81055C136.023 5.81055 134.721 4.50983 134.721 2.90527C134.721 1.30073 136.023 0 137.629 0Z" fill="#EDFFFE"/>
</svg>
